<svg width="128" height="24" viewBox="0 0 128 24" fill="none" xmlns="http://www.w3.org/2000/svg">
<path d="M121.211 10.5842H97.4807V12.627H121.211V10.5842Z" fill="#212121"/>
<path d="M49.6939 10.653H52.0384L48.4622 4.57446H46.124L49.6939 10.653Z" fill="#212121"/>
<path d="M127.442 4.30811H125.356V15.9035H127.442V4.30811Z" fill="#212121"/>
<path d="M126.405 18.1377C125.963 18.1377 125.581 18.2937 125.269 18.6016C124.95 18.9157 124.795 19.2756 124.795 19.7062C124.795 20.1472 124.95 20.5134 125.269 20.8275C125.588 21.1374 125.959 21.2893 126.405 21.2893C126.843 21.2893 127.21 21.1374 127.531 20.8254C127.845 20.5113 128 20.1472 128 19.7062C128 19.2798 127.841 18.9095 127.529 18.6016C127.21 18.2896 126.843 18.1377 126.405 18.1377Z" fill="#212121"/>
<path d="M48.3645 18.6516V20.7672C55.9205 18.9283 61.3932 12.2069 61.5376 4.57446H59.4522C59.3141 11.1252 54.8056 16.8543 48.3645 18.6516Z" fill="#212121"/>
<path d="M82.6554 20.865H95.8434V18.8222H92.728L93.1357 14.2435C93.1336 12.2382 91.4474 10.5864 89.3726 10.5864H84.4329V12.6292H89.3726C90.2964 12.6292 91.0503 13.3657 91.0503 14.2727L90.6446 18.8243H82.6554V20.865Z" fill="#212121"/>
<path d="M64.9567 4.51196V17.1787C64.9567 19.2111 66.645 20.8649 68.7177 20.8649H79.2979V18.8221H68.7177C67.794 18.8221 67.0422 18.0857 67.0422 17.1787V12.3816L77.9387 11.4476V9.39642L67.0422 10.3305V4.51196H64.9567Z" fill="#212121"/>
<path d="M80.5084 4.51196H78.6884V7.35568H80.5084V4.51196Z" fill="#212121"/>
<path d="M77.2698 4.51196H75.4498V7.35568H77.2698V4.51196Z" fill="#212121"/>
<path d="M29.4107 18.0941V20.6091C32.1226 18.9033 34.1996 16.3591 35.2933 13.3927L35.3697 13.1867H37.5189C41.093 13.1867 44.0003 10.3388 44.0003 6.83776V4.48706L28.3192 4.52034V6.56108L41.9149 6.52988V6.84192C41.9128 9.2155 39.942 11.146 37.5189 11.146H33.7919C33.1866 13.8711 31.6406 16.3238 29.4107 18.0941Z" fill="#212121"/>
<path d="M21.9736 2.05114C20.623 0.728092 18.8285 0 16.9193 0C16.0422 0 15.0993 0.170582 14.3284 0.478461C13.5108 0.166421 12.6316 0.00208026 11.729 0.00208026C10.9327 0.00208026 10.1618 0.131057 9.43759 0.370287C8.7559 0.139378 7.87882 0 7.14615 0C5.23697 0 3.44247 0.728092 2.09182 2.05114C0.741163 3.37419 1.40965e-06 5.08 1.40965e-06 7.00009C-0.00212226 10.2058 2.3955 14.0563 5.65109 17.8133C8.13578 20.6778 12.0327 24 12.0327 24C12.0327 24 15.6493 20.9836 18.4144 17.8133C21.5404 14.2269 24.0654 10.3202 24.0654 7.00009C24.0676 5.12993 23.3243 3.37211 21.9736 2.05114ZM2.09819 7.00217C2.09819 5.46277 2.81599 4.0898 3.93941 3.1828C5.06496 4.0898 5.78063 5.46485 5.78063 7.00217C5.78063 8.76415 4.61899 11.0753 3.93941 12.1051C3.25984 11.0753 2.09819 8.76415 2.09819 7.00217ZM5.21361 13.9794C6.57064 11.947 7.98288 8.95345 7.87882 7.00217C7.8321 6.12014 7.71105 5.26099 7.39462 4.46217C6.9168 3.25353 5.86558 2.06778 5.80612 2.07402C6.30093 2.00745 7.76414 2.07818 8.97676 2.85412C10.7097 3.96082 11.5846 6.10557 11.1684 8.02566C10.5568 10.8486 8.71555 13.4406 6.68744 15.8329C6.68956 15.8329 5.68719 14.6159 5.21361 13.9794ZM8.08269 17.4035C11.0091 14.0002 12.7611 10.9838 13.2283 8.42299C13.3473 7.7677 13.6403 6.15342 12.7739 4.18133C12.2706 3.03718 11.3043 2.0761 11.3043 2.0761C12.2791 1.97833 13.4789 2.24252 14.322 2.76259C15.7024 3.61134 17.1656 5.30051 16.6666 8.02774C15.9912 11.7181 12.1198 16.122 9.43547 18.816C9.00861 18.3833 8.55202 17.9111 8.08269 17.4035ZM21.8589 8.02566C20.8247 13.528 12.7484 20.6362 12.0327 21.2561C11.8968 21.1376 11.4954 20.786 10.9284 20.2576C11.6377 19.5462 12.4277 18.7182 13.222 17.8133C16.365 14.2415 18.2169 11.0836 18.7244 8.42299C18.8221 7.95701 19.455 4.69724 16.7855 2.05946C19.6057 1.95753 22.5322 4.39976 21.8589 8.02566Z" fill="#FF0000"/>
</svg>
